<svg height="512" width="512" xmlns="http://www.w3.org/2000/svg"><path d="m398.9104309 233.7859802c-15.9873657-15.8190765-20.362854-62.9397278 0-83.8074341l6.0583801-7.0681 6.0583801 6.0583649c19.5214233 15.4824982 30.628418 32.9844666 33.3210144 52.5058746 27.155365-8.2570648 47.1030884-2.8545685 67.6517944 10.0972748-13.3234253 27.8365784-33.8538513 45.2935791-79.7685242 43.4183044-41.5700377 103.5452577-130.9281005 165.5954286-263.5390624 166.6051637-70.0078201 0-120.1576538-25.2432251-150.4494934-77.7490845-16.833544-30.931488-20.3964793-53.2168884-17.1653811-95.9241638h44.4280396v-53.5155945h52.505867v-52.5058746h105.011734v-51.4961319h62.6031342v104.0020065h52.5058899v53.5155945c35.9889513 1.0437927 58.3463732-1.1799622 80.7782274-14.1362zm-305.9476242-27.2626648h3.0291824v38.3696747h-3.0291824zm-7.0681 0h4.0389099v38.3696747h-4.0389099zm-7.0680999 0h4.0389175v38.3696747h-4.0389175zm-7.0680924 0h4.0389099v38.3696747h-4.0389099zm-6.0583725 0h3.0291824v38.3696747h-3.0291824zm-7.0680962 0h3.0291824v38.3696747h-3.0291824zm-4.0389137-3.0291748v45.4377594h45.437767v-45.4377594zm90.8755417-48.4669647h3.0291748v37.3599548h-3.0291748zm-7.0681 0h3.0291901v37.3599548h-3.0291901zm-7.0680999 0h4.0389099v37.3599548h-4.0389099zm-7.0681 0h4.0389099v37.3599548h-4.0389099zm-7.0680924 0h4.0389099v37.3599548h-4.0389099zm-6.0583725 0h3.0291901v37.3599548h-3.0291901zm-4.0389099-4.0389099v45.4377747h45.4377747v-45.4377747zm38.3696747 55.5350494h3.0291748v38.3696747h-3.0291748zm-7.0681 0h3.0291901v38.3696747h-3.0291901zm-7.0680999 0h4.0389099v38.3696747h-4.0389099zm-7.0681 0h4.0389099v38.3696747h-4.0389099zm-7.0680924 0h4.0389099v38.3696747h-4.0389099zm-6.0583725 0h3.0291901v38.3696747h-3.0291901zm-4.0389099-3.0291748v45.4377594h45.4377747v-45.4377594zm89.8658142 3.0291748h4.0389099v38.3696747h-4.0389099zm-6.0583801 0h3.0291901v38.3696747h-3.0291901zm-7.0681 0h3.0291901v38.3696747h-3.0291901zm-7.0680847 0h4.0389099v38.3696747h-4.0389099zm-7.0681 0h4.0389099v38.3696747h-4.0389099zm-7.0680999 0h4.0389099v38.3696747h-4.0389099zm-3.0291901-3.0291748v45.4377594h45.4377747v-45.4377594zm37.3599548-48.4669647h4.0389099v37.3599548h-4.0389099zm-6.0583801 0h3.0291901v37.3599548h-3.0291901zm-7.0681 0h3.0291901v37.3599548h-3.0291901zm-7.0680847 0h4.0389099v37.3599548h-4.0389099zm-7.0681 0h4.0389099v37.3599548h-4.0389099zm-7.0680999 0h4.0389099v37.3599548h-4.0389099zm-3.0291901-4.0389099v45.4377747h45.4377747v-45.4377747zm89.8658142 55.5350494h4.0389099v38.3696747h-4.0389099zm-7.0681 0h4.0389099v38.3696747h-4.0389099zm-6.0583648 0h3.0291901v38.3696747h-3.0291901zm-7.0681 0h3.0291901v38.3696747h-3.0291901zm-7.0681 0h4.0389099v38.3696747h-4.0389099zm-7.0681 0h4.0389252v38.3696747h-4.0389252zm-3.0291748-3.0291748v45.4377594h44.4280243v-45.4377594zm37.3599396-48.4669647h4.0389099v37.3599548h-4.0389099zm-7.0681 0h4.0389099v37.3599548h-4.0389099zm-6.0583648 0h3.0291901v37.3599548h-3.0291901zm-7.0681 0h3.0291901v37.3599548h-3.0291901zm-7.0681 0h4.0389099v37.3599548h-4.0389099zm-7.0681 0h4.0389252v37.3599548h-4.0389252zm-3.0291748-4.0389099v45.4377747h44.4280243v-45.4377747zm37.3599396-48.4669495h4.0389099v37.3599396h-4.0389099zm-7.0681 0h4.0389099v37.3599396h-4.0389099zm-6.0583648 0h3.0291901v37.3599396h-3.0291901zm-7.0681 0h3.0291901v37.3599396h-3.0291901zm-7.0681 0h4.0389099v37.3599396h-4.0389099zm-7.0681 0h4.0389252v37.3599396h-4.0389252zm-3.0291748-4.0389099v45.4377594h44.4280243v-45.4377594zm89.865799 108.0409088h3.0292053v38.3696747h-3.0292053zm-7.0680847 0h4.0389099v38.3696747h-4.0389099zm-7.0681153 0h4.0389099v38.3696747h-4.0389099zm-6.0583496 0h3.0291748v38.3696747h-3.0291748zm-7.0681152 0h3.0292053v38.3696747h-3.0292053zm-7.0680847 0h4.0389099v38.3696747h-4.0389099zm-4.0389099-3.0291748v45.4377594h45.4377747v-45.4377594zm-114.099289 118.1381836c-3.3657532 0-6.2266693 1.3463135-8.5826874 4.0389099-2.3560333 2.6925964-3.5340576 5.7218018-3.5340576 9.0875549 0 3.3657837 1.1780243 6.2266541 3.5340576 8.5827026 2.3560181 2.3560486 5.2169342 3.5340576 8.5826874 3.5340576s6.2266541-1.178009 8.5826874-3.5340576 3.5340424-5.2169189 3.5340424-8.5827026c0-2.6925964-.5048523-4.8803406-1.5145874-6.5632324-1.0097198-1.6828613-2.5243225-3.1974487-4.5437775-4.5437622s-4.0389099-2.0194702-6.0583649-2.0194702zm0 4.0389099c1.3462982 0 2.3560181.3366089 3.0291901 1.0097351-1.3463135.6731567-2.0194702 1.6828613-2.0194702 3.0291748 0 2.0194702 1.3462982 3.0292053 4.0389252 3.0292053 1.3462982 0 2.3560181-.6731567 3.0291748-2.0194702.6731567 1.3463135 1.0097351 2.6925964 1.0097351 4.0389099 0 6.0583801-3.0291901 9.0875549-9.0875549 9.0875549s-9.0875549-3.0291748-9.0875549-9.0875549c-.0000001-6.0583495 3.02919-9.0875549 9.0875548-9.0875549zm33.3210297 86.8366394c-27.5992279-13.4630432-46.7840729-32.3113098-57.5545044-56.5447693-11.4435883 3.3657532-25.2432098 5.3852234-41.3988571 6.0583496h-43.4183121c33.657608 32.984436 76.4027634 49.8132629 128.2354736 50.4864197z"/></svg>