<svg height="32" viewBox="0 0 32 32" width="32" xmlns="http://www.w3.org/2000/svg"><path d="m31.396 14.573-13.974-13.969c-.802-.807-2.109-.807-2.917 0l-2.896 2.901 3.682 3.677c.859-.286 1.839-.094 2.516.589.688.688.88 1.677.589 2.531l3.542 3.547c.859-.297 1.849-.104 2.531.583.964.958.964 2.51 0 3.469-.958.958-2.505.958-3.464 0-.719-.719-.901-1.781-.542-2.661l-3.318-3.302v8.703c.234.115.458.271.651.464.953.964.953 2.51 0 3.469-.958.958-2.516.958-3.479 0-.958-.958-.958-2.505 0-3.469.245-.24.516-.417.807-.536v-8.786c-.286-.125-.563-.297-.802-.536-.724-.724-.901-1.786-.526-2.677l-3.615-3.635-9.583 9.578c-.797.802-.797 2.109 0 2.917l13.974 13.969c.807.807 2.109.807 2.917 0l13.906-13.906c.807-.802.807-2.109 0-2.917z"/></svg>