<svg viewBox="0 0 1024 1176.463" xmlns="http://www.w3.org/2000/svg"><path d="M156.302 74.688c-40.475.16-73.24 32.938-73.38 73.403v664.142c.137 40.463 32.913 73.225 73.37 73.34h376.622c-1.787-21.475-2.806-46.48-2.806-71.723 0-12.847.264-25.63.787-38.348l-.06 1.82c-.24-2.478-.44-5.637-.64-8q-7.316-47.947-18.914-95.092c-3.795-16.115-8.86-30.207-15.298-43.512l.543 1.244c-2.548-4.023-4.06-8.92-4.06-14.17 0-1.095.066-2.173.193-3.232l-.013.128c.105-5.53.64-10.858 1.57-16.047l-.09.612c2.827-16.732 6.08-30.823 10.053-44.607l-.696 2.82 8.678-1.12c-.68-1.4-.56-2.6-1.24-3.88l-1.64-15.235q7.18-24.017 15.276-47.744l8-.76c-.32-.64-.4-1.52-.72-2.12l-1.724-12.635C562.31 322.58 629.546 190.33 723.05 81.26l-.993 1.184c2.64-2.76 5.318-5.12 7.917-7.758zm742.706-21.716c-41.268-36.79-91.174-21.994-140.48 21.754q-11.4 10.212-21.873 21.394C647.05 201.54 581.672 330.337 550.8 472.02l-1.05 5.75c8.352 17.638 15.802 38.427 21.24 60.016l.512 2.407q3.667 13.962 6.558 28.112s-.76-2.84-3.84-11.837l-1.997-5.84q-.62-1.614-1.32-3.2c-5.52-12.795-20.714-39.788-27.432-51.544-5.717 16.915-10.796 32.71-15.035 47.026 13.215 27.614 23.974 59.74 30.672 93.33l.44 2.642s-1-3.958-5.88-17.675c-10.958-23.633-21.253-42.825-32.47-61.398l1.6 2.855c-5.908 14.842-9.334 32.04-9.334 50.04 0 3.19.108 6.353.32 9.488l-.024-.425c7.02 13.63 12.828 29.458 16.61 46.055l.264 1.37c11.437 43.986 19.392 97.57 19.392 97.57l.68 8.96c-.48 10.955-.752 23.803-.752 36.715 0 25.757 1.087 51.26 3.216 76.466l-.224-3.292c1.868 38.582 9.043 74.86 20.818 108.994l-.823-2.745 6.2-3.358c-11.063-38.183-17.426-82.043-17.426-127.39 0-10.993.374-21.9 1.11-32.707l-.08 1.46c7.087-121.012 30.85-234.204 69.07-340.5l-2.65 8.437c52.96-156.808 139.49-290.322 251.552-397.33l.376-.356c-79.697 71.98-187.626 305.114-219.936 391.41-30.815 77.443-57.54 169.41-75.667 264.427l-1.552 9.773c21.252-52.458 61.234-93.622 111.452-115.91l1.356-.536s42.268-52.145 91.654-126.604c-38.226 8.008-69.892 16.683-100.812 26.99l6.358-1.838c-23.993 10.037-30.47 13.476-30.47 13.476 41.208-25.303 88.856-48.48 138.79-66.94l5.687-1.84c91.734-144.477 191.705-349.74 91.053-439.55z"/></svg>