<svg viewBox="0 0 13 16" xmlns="http://www.w3.org/2000/svg"><path d="m6.72192 0c-.0992 0-.2016.00512-.30656.01344-2.70528.21312-1.98784 3.07648-2.0288 4.03072-.04928.69952-.192 1.25056-.67264 1.93344-.5664.67264-1.36128 1.76-1.73824 2.89344-.17792.53248-.2624 1.07776-.18368 1.59296-.02496.02176-.04864.04352-.07104.0864-.1664.17152-.28736.38464-.42368.53696-.12736.12736-.3104.17088-.51008.256-.20032.08704-.42112.17216-.55296.43584-.0576.12032-.08704.25152-.08448.38464 0 .12736.01728.25664.0352.34304.03712.25536.07424.46656.02496.6208-.15872.4352-.17856.73344-.0672.9504.11136.21376.3424.30016.60096.38464.51904.128 1.2224.0864 1.776.38336.59264.29888 1.19424.42944 1.67424.3008.33664-.0736.6208-.29632.77312-.6048.37568-.00192.7872-.17216 1.4464-.21376.44736-.03712 1.00736.17088 1.64992.12736.016.0864.04032.12736.07296.21376l.00192.00192c.25024.49792.71232.72448 1.20576.68544.49344-.0384 1.01888-.34304 1.44448-.83584.40384-.4896 1.07712-.69376 1.52192-.96192.22272-.12736.40256-.30016.41536-.54592.01472-.256-.12736-.51968-.45696-.88128v-.06208l-.00192-.00192c-.1088-.128-.16-.3424-.21632-.59264-.0544-.25664-.11648-.50304-.31488-.66944h-.00192c-.03776-.03456-.07872-.04288-.12032-.0864-.03584-.02432-.07744-.03968-.1216-.04096.27584-.81792.16896-1.632-.11072-2.36416-.34112-.9024-.9376-1.68832-1.392-2.22912-.50944-.6432-1.00864-1.25248-.99904-2.15616.01728-1.37728.15168-3.92512-2.26816-3.92896zm.33856 2.1792h.00832c.13632 0 .25344.03968.37376.12672.12224.0864.2112.21248.28096.34112.0672.16576.10112.29376.10624.46336 0-.0128.00384-.0256.00384-.03776v.06656c-.00128-.00448-.00256-.0096-.00256-.01344l-.00256-.01536c-.00128.15552-.03392.30912-.096.45184-.03008.08-.07616.1536-.13632.2144-.01856-.01024-.03648-.0192-.05632-.02688-.0672-.0288-.12736-.04096-.1824-.08512-.04544-.01792-.0928-.03264-.14016-.04224.03136-.03776.0928-.08512.11648-.12672.03392-.08192.05248-.16896.05632-.25728v-.01216c.00128-.0864-.01152-.17344-.03904-.256-.0288-.0864-.06464-.12864-.11712-.21376-.05376-.04224-.10688-.08448-.17088-.08448h-.01024c-.05952 0-.11264.0192-.16768.08448-.0608.06016-.10624.13248-.1312.21376-.03392.08128-.05376.16896-.0576.256v.01216c.00128.05696.00512.11456.0128.17088-.12352-.04288-.28032-.0864-.38848-.12928-.0064-.0416-.01024-.08448-.01152-.12736v-.0128c-.00512-.16896.02752-.33664.096-.49216.05248-.14016.14848-.25984.2752-.34112.10944-.08256.24256-.12736.38016-.12736zm-1.89568.03776h.02304c.09088 0 .1728.03072.25536.0864.09344.08256.16896.18432.22016.2976.0576.12736.09024.25664.09792.42688v.00256c.00448.08576.00384.12864-.00128.17024v.0512c-.0192.00448-.03584.01152-.05312.01536-.09728.0352-.17536.0864-.25152.128.00768-.05696.00832-.11456.00192-.17088v-.0096c-.00768-.08512-.02496-.12736-.05248-.21312-.01984-.06528-.05632-.12352-.10624-.17088-.03136-.0288-.0736-.04352-.11712-.04096h-.01344c-.04544.00384-.0832.02624-.11904.08448-.04096.04928-.0672.10944-.0768.1728-.01728.06912-.0224.14016-.01472.21184v.00896c.00768.0864.02368.12864.05184.21376.0288.08576.06208.128.1056.17152.00704.00576.01344.01152.02176.01536-.0448.03648-.07488.0448-.11264.08704-.02368.01792-.0512.0384-.08384.04352-.06656-.08-.12544-.1664-.176-.25728-.06144-.1344-.09344-.28032-.0992-.42688-.01088-.14464.00704-.28928.0512-.42752.0352-.12608.09728-.24256.18112-.3424.08192-.08512.1664-.128.26752-.128zm.87744 1.09184c.21184 0 .46848.0416.7776.25536.18752.128.33472.17216.67392.29952h.00192c.1632.08704.2592.17024.30592.25536v-.08384c.04672.09408.04992.20352.01024.3008-.07872.19904-.33024.41216-.68096.53952v.00128c-.17152.0864-.32064.21312-.496.2976-.17664.0864-.37632.18688-.64768.17088-.09728.00512-.1952-.0096-.28672-.04288-.0704-.0384-.13952-.08064-.20608-.12672-.1248-.0864-.23232-.21248-.39168-.2976v-.0032h-.0032c-.256-.15744-.39424-.32768-.43904-.45504-.04416-.17152-.0032-.30016.12352-.384.14336-.0864.2432-.17344.30912-.21504.06656-.04736.09152-.06528.11264-.08384h.00128v-.00192c.10816-.12928.27904-.30016.53696-.38464.08896-.02304.18816-.0416.29824-.0416zm1.79136 1.37152c.22976.90688.76608 2.224 1.11104 2.86272.18304.34176.5472 1.06176.70528 1.93536.09984-.0032.21056.01152.32832.04096.41344-1.06944-.34944-2.21888-.69696-2.53824-.14144-.12864-.14848-.2144-.07872-.2144.37696.34176.8736 1.00608 1.05344 1.76448.08256.3424.10176.70656.01344 1.0688.04288.01792.0864.03904.1312.04288.66048.34176.90432.60032.7872.98368v-.02752c-.03904-.00192-.0768 0-.11584 0h-.0096c.09664-.29888-.11648-.528-.6816-.78336-.5856-.256-1.05344-.21504-1.13344.2976-.00448.02752-.00768.04224-.01088.0864-.04352.01472-.08896.03392-.13376.04096-.2752.17152-.42368.42816-.50752.75968-.0832.34112-.1088.73984-.1312 1.19616v.00192c-.01344.21376-.10944.53632-.20416.86464-.96.68608-2.2912.98432-3.42336.21376-.07104-.12352-.15744-.23936-.25728-.34112-.04736-.08-.10752-.15168-.176-.21376.11648 0 .21632-.01856.2976-.04288.0928-.04288.16448-.12032.20096-.21376.06912-.17088 0-.44608-.2208-.74432-.2208-.29888-.59584-.6368-1.14432-.97344-.4032-.25536-.63104-.5568-.736-.89344-.1056-.34176-.09152-.6944-.0096-1.0528.1568-.6848.55872-1.3504.81536-1.76832.06848-.0416.02368.0864-.26112.62336-.25344.48064-.73024 1.59808-.07808 2.46656.02432-.63296.16512-1.2576.41408-1.84064.36096-.81792 1.11552-2.24256 1.17504-3.37152.03072.02304.13888.0864.18496.12928.13952.08512.2432.21312.3776.2976.13504.12864.30528.2144.56064.2144.02496.00192.048.00384.07104.00384.26304 0 .46656-.08576.63744-.17152.1856-.08576.33344-.21376.4736-.256h.0032c.29888-.0864.53504-.25728.6688-.448zm1.39904 5.73312c.02368.38464.21952.7968.56448.88128.37632.08576.91776-.21312 1.14624-.4896l.13504-.00576c.2016-.00512.36928.0064.54208.17088l.00192.00192c.13312.12736.1952.33984.25024.56064.0544.25664.09856.4992.26176.68224.31104.33728.4128.57984.40704.7296l.00192-.00384v.01152l-.00192-.00768c-.0096.16768-.1184.25344-.31872.3808-.4032.25664-1.11744.45568-1.57248 1.0048-.39552.47168-.87744.72896-1.30304.76224-.42496.03392-.79168-.128-1.00736-.57472l-.0032-.00192c-.1344-.25664-.0768-.656.03584-1.0816.11264-.42752.27392-.8608.29632-1.21472.02368-.45696.04864-.8544.1248-1.16096.0768-.2976.19712-.51008.41024-.62976l.0288-.01408zm-6.9216.03136h.0064c.03392 0 .0672.0032.10048.00896.24064.0352.45184.21312.65472.48128l.5824 1.06496.00192.00192c.15552.34112.48256.68096.76096 1.04832.27776.38272.4928.72384.46656 1.0048v.00384c-.03648.47616-.30656.73472-.72.82816-.4128.0864-.9728.00128-1.5328-.29696-.61952-.34304-1.35552-.30016-1.82848-.38528-.23616-.04224-.39104-.12864-.46272-.25664-.07104-.12736-.07232-.38464.07872-.7872v-.00192l.00128-.00192c.07488-.21376.0192-.48192-.01728-.71616-.0352-.25664-.05312-.45376.02752-.6016.1024-.21376.25344-.25536.44096-.34112.1888-.0864.41024-.12928.58624-.30016h.00128v-.00192c.16384-.17152.2848-.38464.42752-.53632.1216-.12864.2432-.21504.42432-.21504zm4.58176-5.80736c-.2784.12864-.6048.3424-.95232.3424-.34688 0-.6208-.17088-.81856-.29824-.0992-.08576-.1792-.17152-.23936-.2144-.10496-.08576-.09216-.21376-.04736-.21376.06976.01024.08256.0864.12736.12864.06144.04224.1376.12736.23104.21312.18624.128.4352.29888.74624.29888.3104 0 .67392-.17088.89472-.29824.1248-.0864.2848-.21376.41472-.29888.09984-.08768.09536-.17152.17856-.17152.08256.01024.02176.08576-.09408.21312-.11584.0864-.29504.2144-.4416.29952v-.00064zm-.69248-1.01376v-.01408c-.00384-.01216.00832-.02688.01856-.032.04736-.02752.1152-.01728.1664.00256.04032 0 .1024.04288.096.0864-.00384.03136-.0544.04224-.0864.04224-.0352 0-.05888-.02752-.09024-.04352-.03328-.01152-.09344-.00512-.10432-.0416zm-.35264 0c-.0128.03712-.07232.03136-.10624.04224-.03008.016-.05504.04352-.08896.04352-.03264 0-.08384-.01216-.08768-.04352-.00576-.04224.05632-.08512.096-.08512.05184-.01984.11776-.03008.16576-.0032.01216.00576.02304.0192.0192.032v.01344h.00192z" fill="#fff"/></svg>