<?xml version="1.0" standalone="no"?>
<!DOCTYPE svg PUBLIC "-//W3C//DTD SVG 20010904//EN"
 "http://www.w3.org/TR/2001/REC-SVG-20010904/DTD/svg10.dtd">
<svg version="1.0" xmlns="http://www.w3.org/2000/svg"
 width="512.000000pt" height="512.000000pt" viewBox="0 0 512.000000 512.000000"
 preserveAspectRatio="xMidYMid meet">

<g transform="translate(0.000000,512.000000) scale(0.100000,-0.100000)"
fill="#000000" stroke="none">
<path d="M2351 4761 c-111 -193 -210 -370 -221 -394 -55 -123 -41 -293 33
-419 32 -55 121 -139 177 -168 144 -73 327 -69 459 12 95 58 174 162 205 267
20 70 21 192 0 262 -14 50 -431 789 -445 789 -3 0 -97 -157 -208 -349z"/>
<path d="M2330 3261 l0 -230 -632 -3 c-612 -4 -636 -5 -711 -26 -246 -68 -428
-249 -499 -497 -21 -74 -22 -100 -23 -345 0 -250 1 -269 23 -330 96 -275 413
-397 661 -254 25 15 169 149 318 297 l273 271 272 -271 c288 -285 316 -307
435 -338 73 -19 153 -19 226 0 119 31 147 53 435 338 l272 271 268 -266 c147
-146 287 -278 311 -293 145 -90 339 -90 481 0 89 56 158 146 197 257 16 46 18
85 18 313 -1 298 -8 344 -77 485 -34 69 -59 102 -133 175 -73 74 -106 99 -175
133 -157 77 -138 75 -847 79 l-633 4 0 230 0 229 -230 0 -230 0 0 -229z"/>
<path d="M1589 1504 c-79 -80 -171 -165 -205 -190 -240 -173 -555 -195 -827
-58 -49 24 -91 44 -93 44 -3 0 -4 -251 -2 -557 3 -519 4 -561 22 -601 23 -52
92 -115 144 -130 30 -9 511 -12 1938 -12 l1899 0 50 24 c54 25 100 71 122 123
10 26 13 145 13 593 0 308 -2 560 -5 560 -3 0 -23 -11 -45 -25 -105 -66 -256
-106 -399 -107 -130 0 -227 21 -340 73 -113 53 -169 96 -341 266 l-146 142
-139 -140 c-201 -202 -293 -262 -470 -310 -103 -28 -297 -31 -397 -6 -176 43
-279 109 -481 306 l-153 150 -145 -145z"/>
</g>
</svg>
