<?xml version="1.0" standalone="no"?>
<!DOCTYPE svg PUBLIC "-//W3C//DTD SVG 20010904//EN"
 "http://www.w3.org/TR/2001/REC-SVG-20010904/DTD/svg10.dtd">
<svg version="1.0" xmlns="http://www.w3.org/2000/svg"
 width="1000.000000pt" height="1000.000000pt" viewBox="0 0 1000.000000 1000.000000"
 preserveAspectRatio="xMidYMid meet">

<g transform="translate(0.000000,1000.000000) scale(0.100000,-0.100000)"
fill="#000000" stroke="none">
<path d="M8656 9769 c-22 -5 -63 -27 -92 -49 -114 -89 -139 -125 -182 -260
-17 -56 -24 -65 -45 -68 -52 -6 -143 -65 -197 -126 -14 -16 -44 -48 -67 -71
-24 -23 -43 -45 -43 -49 0 -11 -82 -107 -140 -166 -31 -30 -69 -73 -85 -95
-16 -22 -49 -61 -72 -87 -24 -26 -43 -51 -43 -55 0 -4 -13 -22 -28 -40 -15
-17 -38 -47 -52 -65 -54 -72 -220 -234 -314 -306 -55 -42 -143 -117 -196 -169
-154 -148 -285 -244 -425 -311 -119 -57 -154 -72 -173 -72 -9 0 -25 -7 -35
-14 -14 -11 -89 -14 -360 -15 -196 0 -357 -5 -377 -11 -19 -5 -80 -10 -135
-10 -55 -1 -120 -5 -145 -11 -25 -5 -84 -14 -131 -18 -47 -5 -95 -14 -107 -20
-11 -6 -31 -11 -43 -11 -11 0 -42 -6 -68 -14 -25 -8 -73 -22 -106 -32 -33 -10
-64 -21 -70 -25 -5 -4 -30 -11 -55 -17 -92 -22 -131 -32 -148 -41 -9 -4 -48
-23 -87 -41 -100 -48 -182 -104 -246 -169 -30 -32 -73 -70 -95 -86 -98 -73
-208 -173 -248 -227 -16 -21 -34 -38 -41 -38 -7 0 -33 23 -57 51 -23 28 -68
69 -98 92 -30 23 -59 47 -65 53 -5 6 -30 26 -55 45 -25 18 -56 44 -70 56 -14
13 -28 23 -32 23 -7 0 -101 65 -143 98 -61 48 -182 140 -199 152 -11 8 -48 38
-80 67 -33 29 -65 53 -71 53 -6 0 -22 12 -36 26 -13 14 -71 55 -130 90 -58 36
-123 80 -144 99 -22 18 -69 48 -105 66 -36 18 -72 36 -80 41 -8 4 -24 12 -35
17 -11 5 -56 25 -100 45 -44 21 -93 43 -110 50 -66 29 -243 118 -290 146 -27
16 -57 32 -65 36 -8 3 -27 12 -42 20 -14 8 -31 14 -37 14 -6 0 -40 18 -76 40
-36 22 -73 40 -83 41 -9 0 -36 10 -59 22 -22 12 -72 38 -110 57 -44 23 -95 62
-146 112 -76 74 -78 77 -63 100 24 37 38 132 43 307 5 181 -1 208 -64 276 -77
82 -100 95 -166 95 -72 0 -94 -12 -122 -67 -10 -21 -24 -45 -30 -53 -23 -31
-35 -100 -35 -208 l0 -111 43 -80 c23 -44 66 -110 94 -146 l53 -65 -17 -38
c-8 -20 -20 -47 -26 -59 -5 -12 -6 -46 -2 -78 4 -32 1 -101 -6 -158 -9 -79 -9
-133 0 -237 22 -261 30 -336 40 -364 6 -15 11 -45 11 -67 0 -22 5 -50 12 -62
6 -12 15 -40 19 -62 4 -22 15 -67 24 -100 9 -33 20 -76 25 -95 5 -19 10 -65
10 -102 0 -37 5 -79 11 -95 7 -17 15 -175 20 -393 18 -703 25 -838 48 -978 13
-74 20 -136 17 -139 -3 -4 -57 -5 -120 -4 -71 1 -132 -3 -158 -11 -46 -14
-122 -83 -133 -121 -3 -12 -10 -31 -15 -42 -33 -73 -40 -104 -40 -174 0 -82
24 -142 65 -165 10 -6 37 -21 58 -34 59 -35 195 -42 258 -14 104 48 208 210
209 324 0 48 14 55 45 24 39 -39 61 -103 67 -192 3 -45 11 -91 17 -102 7 -13
11 -88 11 -199 0 -200 4 -239 30 -273 23 -31 77 -30 103 2 17 20 18 34 12 123
-3 55 -8 150 -10 210 -4 149 -20 307 -34 333 -6 11 -11 30 -11 42 0 28 -57
130 -87 153 -12 10 -23 24 -23 32 0 14 -42 45 -63 45 -39 0 -48 23 -53 135 -3
61 -9 115 -14 120 -12 15 -31 409 -40 840 -5 236 -12 404 -19 425 -6 19 -11
76 -11 126 0 50 -6 110 -14 135 -16 54 -36 131 -47 184 -4 22 -17 74 -27 115
-36 137 -59 376 -61 654 -1 113 2 135 20 173 l21 44 57 -58 c63 -65 109 -91
386 -223 168 -79 404 -200 429 -218 6 -5 47 -23 91 -42 87 -36 200 -86 227
-101 10 -5 46 -24 80 -41 35 -18 95 -56 133 -84 39 -29 86 -60 105 -71 61 -33
218 -146 240 -173 3 -3 34 -28 70 -55 36 -27 90 -69 120 -94 30 -24 78 -59
105 -77 28 -17 61 -42 75 -54 14 -12 48 -37 75 -55 28 -17 59 -42 69 -54 11
-11 25 -21 32 -21 7 0 14 -3 16 -7 2 -5 32 -33 68 -63 74 -63 146 -134 167
-166 14 -23 9 -46 -19 -78 -82 -98 -172 -248 -198 -331 -20 -63 -53 -134 -61
-130 -3 3 -10 46 -13 97 -10 135 -38 214 -129 366 -20 34 -37 65 -37 68 0 4
-12 20 -26 38 -14 17 -53 74 -86 126 -33 52 -81 117 -107 143 -42 45 -193 167
-205 167 -3 0 -34 17 -68 38 -35 20 -85 48 -111 62 -66 34 -107 61 -247 160
-62 44 -113 70 -185 95 -93 32 -155 60 -210 95 -16 11 -37 23 -45 27 -8 3 -28
16 -45 28 -40 29 -88 52 -127 60 -18 4 -37 10 -43 14 -5 4 -37 15 -70 26 -33
10 -67 24 -75 30 -40 32 -102 23 -121 -17 -11 -26 3 -90 41 -188 12 -30 25
-69 29 -85 4 -17 13 -40 19 -52 7 -12 12 -30 12 -41 0 -11 7 -33 15 -48 8 -16
15 -37 15 -46 0 -9 4 -19 9 -22 5 -3 12 -23 16 -43 4 -21 10 -42 15 -48 4 -5
11 -36 14 -67 4 -32 12 -60 17 -63 5 -4 9 -21 9 -38 1 -18 7 -59 15 -92 8 -33
15 -90 15 -126 0 -36 5 -79 10 -95 10 -30 24 -112 40 -245 5 -42 19 -110 30
-150 12 -41 26 -91 31 -112 5 -21 13 -45 18 -55 4 -9 15 -33 23 -52 62 -141
142 -278 211 -360 50 -59 139 -150 148 -150 4 0 20 -11 35 -25 15 -14 33 -25
41 -25 7 0 39 -14 71 -31 l57 -30 249 1 c291 1 331 8 468 92 122 74 163 107
209 171 24 31 46 57 50 57 9 0 157 -151 191 -195 70 -90 263 -265 335 -303 12
-7 27 -18 35 -25 7 -7 42 -31 78 -52 67 -40 240 -201 240 -222 0 -6 6 -18 13
-25 16 -15 47 -77 47 -91 0 -6 8 -19 17 -30 16 -17 18 -45 18 -271 l0 -251
-35 -105 c-19 -58 -44 -121 -57 -141 -20 -34 -101 -109 -117 -109 -3 0 -52
-23 -108 -51 l-103 -51 -17 22 c-10 12 -18 34 -18 49 0 53 -51 175 -95 225
-14 16 -25 32 -25 36 0 4 -19 25 -41 48 -50 49 -246 149 -364 186 -27 8 -66
21 -85 27 -75 26 -632 47 -732 29 -79 -15 -108 -43 -92 -89 14 -39 43 -49 121
-39 103 12 101 14 95 -100 -5 -125 14 -208 69 -299 36 -60 161 -193 181 -193
4 0 37 -18 73 -40 36 -22 70 -40 76 -40 6 0 25 -6 42 -14 57 -24 174 -36 357
-36 127 0 196 4 237 15 37 10 60 12 67 5 17 -17 0 -379 -22 -465 -8 -29 -27
-55 -69 -93 -66 -61 -101 -79 -193 -100 -87 -19 -384 -26 -469 -11 -37 6 -104
15 -151 20 -47 4 -105 12 -130 18 -25 6 -71 10 -102 11 -60 0 -162 22 -182 40
-7 5 -41 14 -77 20 -132 21 -160 27 -171 38 -7 7 -20 12 -29 12 -10 0 -47 13
-82 30 -36 16 -72 30 -81 30 -8 0 -18 5 -21 10 -3 6 -14 10 -23 10 -9 1 -51
27 -92 58 -73 56 -78 64 -132 174 -4 10 -8 23 -8 29 0 6 -6 25 -14 42 -26 59
-39 102 -47 157 -4 30 -12 87 -18 125 -6 39 -10 104 -11 146 0 48 -6 87 -15
105 -8 16 -15 55 -15 87 0 108 -46 161 -109 126 -24 -14 -26 -20 -29 -99 -2
-47 1 -101 7 -120 5 -19 19 -114 31 -210 21 -178 46 -307 61 -325 5 -5 9 -16
9 -25 0 -8 6 -27 14 -42 8 -15 17 -40 21 -57 4 -17 11 -33 16 -36 5 -4 9 -17
9 -30 0 -12 14 -50 30 -83 17 -34 30 -63 30 -66 0 -21 84 -136 147 -202 71
-73 152 -144 166 -144 3 0 32 -17 64 -39 51 -33 143 -86 224 -128 15 -7 46
-30 70 -51 41 -35 96 -67 224 -130 58 -28 60 -29 140 -78 96 -59 197 -135 233
-173 17 -20 46 -65 63 -101 17 -36 34 -72 38 -80 5 -9 12 -31 16 -50 4 -19 11
-41 16 -50 19 -35 46 -114 75 -218 4 -14 111 -17 133 -3 13 9 9 56 -9 91 -5 8
-18 44 -30 80 -12 36 -26 74 -30 85 -5 11 -18 47 -29 81 -31 93 -96 210 -149
266 -39 42 -130 112 -200 153 -9 6 -42 27 -72 46 -30 20 -75 46 -100 58 -120
59 -224 120 -261 153 -25 23 -37 30 -149 91 -30 16 -70 40 -90 52 -19 12 -42
25 -50 29 -52 25 -145 92 -169 122 -23 29 -19 48 7 35 16 -8 45 -20 125 -54
17 -8 49 -22 70 -31 21 -9 46 -16 56 -16 10 0 35 -7 54 -15 20 -8 50 -15 67
-15 17 0 40 -5 51 -11 11 -6 55 -15 97 -19 137 -17 268 -36 278 -43 5 -3 59
-8 119 -12 61 -3 133 -10 160 -16 107 -23 456 2 548 40 87 35 216 143 252 212
36 69 53 211 54 445 1 143 3 163 19 177 10 10 24 17 30 17 12 0 188 85 207 99
12 10 55 -4 55 -18 0 -5 36 -45 79 -88 63 -61 90 -98 125 -168 26 -49 46 -93
46 -99 0 -5 6 -17 14 -25 7 -9 22 -38 32 -66 10 -27 24 -61 31 -75 7 -14 13
-29 13 -35 0 -5 11 -32 25 -60 13 -27 25 -57 25 -65 0 -9 6 -24 14 -35 16 -23
21 -65 36 -285 5 -85 15 -175 21 -200 6 -25 12 -158 14 -301 1 -141 5 -261 9
-267 9 -14 66 -33 66 -21 0 5 6 9 14 9 8 0 24 15 36 34 20 33 21 45 17 203 -6
205 -22 438 -37 516 -6 32 -8 66 -5 76 3 10 1 69 -5 130 -10 112 -22 150 -91
298 -16 35 -29 69 -29 76 0 7 -7 22 -15 33 -8 10 -15 25 -15 32 0 11 -94 207
-137 285 -6 12 -54 63 -106 113 l-95 91 35 44 c40 50 68 105 79 152 3 17 10
38 15 47 36 68 51 219 47 465 -4 220 -4 220 -33 275 -77 148 -128 221 -201
289 -70 66 -155 131 -172 131 -6 0 -98 66 -137 98 -5 4 -26 17 -45 29 -67 43
-359 354 -375 402 -6 17 -23 40 -38 53 -15 13 -27 29 -27 35 0 10 45 110 70
155 5 9 26 59 46 110 20 51 49 111 65 133 16 22 45 65 65 95 20 30 54 73 74
95 34 36 101 125 199 264 19 26 69 74 110 104 42 31 96 77 121 103 45 46 142
125 170 137 8 4 31 17 50 28 47 29 179 79 207 79 12 0 56 14 98 30 42 17 88
30 103 30 16 0 32 4 37 9 28 25 222 58 415 71 80 6 158 15 174 20 17 6 161 10
345 10 272 0 329 3 402 19 47 10 95 23 106 30 12 6 31 11 42 11 12 0 29 4 39
10 9 5 40 19 67 30 68 29 104 47 140 70 17 11 37 23 45 27 19 8 56 37 100 76
19 18 47 40 61 49 15 9 74 61 130 115 57 54 124 114 149 133 25 19 47 37 50
40 3 3 25 21 50 40 45 34 212 198 260 255 14 17 53 66 87 110 33 44 71 91 84
104 13 14 33 40 44 57 11 18 54 68 95 111 42 43 94 100 115 128 22 27 55 67
74 87 19 21 39 46 46 55 23 32 82 57 107 46 41 -18 49 -139 54 -833 l5 -625
31 -90 c17 -49 41 -112 52 -140 12 -27 30 -79 40 -115 9 -36 22 -78 28 -95 5
-16 13 -46 17 -66 4 -19 12 -42 16 -50 16 -25 27 -112 32 -256 4 -133 3 -147
-21 -217 -14 -41 -26 -87 -26 -103 -1 -15 -7 -39 -15 -53 -8 -14 -14 -37 -15
-51 0 -15 -7 -32 -15 -39 -8 -7 -15 -18 -15 -25 0 -8 -20 -52 -45 -99 -24 -47
-48 -93 -53 -103 -26 -54 -74 -157 -102 -218 -17 -38 -43 -92 -56 -118 -13
-27 -24 -55 -24 -63 0 -7 -6 -28 -14 -46 -8 -18 -22 -53 -31 -78 -10 -25 -23
-58 -30 -75 -7 -16 -18 -94 -25 -173 -14 -159 -13 -166 46 -178 21 -4 37 0 54
14 22 18 26 31 32 109 10 138 27 203 84 331 13 29 24 57 24 62 0 5 25 61 55
124 30 63 57 126 61 140 3 14 10 26 15 26 5 0 9 6 9 13 0 9 113 249 161 339 5
10 9 26 9 35 0 10 7 31 15 47 8 15 15 41 15 57 0 17 7 46 16 67 23 55 23 506
0 550 -9 17 -16 41 -16 52 0 12 -11 54 -24 93 -13 40 -33 104 -45 142 -24 75
-35 104 -57 148 -8 16 -14 39 -14 51 0 12 -7 31 -15 42 -12 16 -14 108 -15
622 0 341 -4 611 -9 620 -5 10 -12 78 -16 153 l-8 136 45 11 c25 6 71 14 104
17 182 18 347 114 375 218 31 117 -47 220 -186 246 -69 13 -134 13 -189 0z
m165 -134 c24 -9 54 -25 67 -35 22 -18 22 -21 9 -41 -33 -46 -155 -108 -215
-109 -12 0 -49 -7 -81 -16 -33 -9 -66 -14 -75 -11 -14 6 -14 10 2 44 22 50 47
81 97 120 83 66 119 74 196 48z m-7529 -447 l38 -43 0 -165 c0 -91 -4 -171 -8
-178 -16 -24 -42 0 -87 80 -44 79 -45 82 -45 173 0 90 15 148 44 167 17 12 18
11 58 -34z m645 -1428 c32 -16 78 -39 103 -50 25 -11 68 -34 95 -50 70 -42
151 -80 169 -80 8 0 17 -4 20 -9 3 -4 18 -11 33 -14 16 -3 50 -21 76 -39 72
-49 97 -65 147 -90 25 -13 47 -25 50 -28 7 -8 92 -63 116 -76 11 -6 52 -28 90
-49 38 -21 83 -45 99 -54 17 -8 32 -18 35 -21 3 -4 20 -16 37 -27 46 -28 183
-160 183 -177 0 -3 20 -34 45 -70 25 -37 45 -69 45 -72 0 -3 16 -26 35 -51 19
-25 46 -69 60 -97 14 -28 37 -71 50 -95 14 -24 25 -52 25 -61 0 -9 4 -20 9
-25 6 -6 15 -50 20 -100 21 -184 30 -247 39 -259 26 -33 22 -49 -25 -96 -27
-27 -74 -78 -106 -114 -32 -36 -69 -69 -83 -72 -13 -3 -24 -10 -24 -14 0 -4
-8 -10 -17 -14 -10 -3 -25 -10 -33 -15 -56 -35 -98 -41 -280 -44 -205 -2 -287
10 -389 60 -61 30 -158 126 -213 211 -20 31 -42 63 -48 70 -26 29 -103 200
-132 291 -16 53 -34 105 -38 116 -8 19 -24 123 -40 251 -4 34 -10 66 -14 72
-4 7 -11 53 -16 104 -13 143 -31 271 -40 293 -5 11 -11 38 -15 60 -6 38 -28
117 -44 160 -16 42 -33 91 -41 120 -12 42 -39 114 -51 137 -10 18 -6 48 5 48
3 0 31 -13 63 -30z m-523 -2290 c33 -34 -23 -196 -90 -261 -32 -31 -40 -34
-97 -34 -43 0 -72 6 -94 20 -31 18 -33 23 -33 75 1 32 7 63 15 74 8 11 15 26
15 33 0 22 50 93 70 101 11 4 60 7 109 7 67 0 94 -4 105 -15z m1844 -931 c40
-5 97 -9 127 -9 64 0 144 -22 275 -77 75 -32 166 -78 193 -97 39 -29 103 -127
124 -190 9 -28 20 -60 25 -71 4 -11 9 -38 11 -60 l2 -40 -55 -6 c-30 -3 -66
-10 -80 -15 -34 -13 -372 -9 -398 5 -11 6 -32 11 -47 11 -14 0 -64 19 -110 41
-101 49 -197 136 -240 219 -26 49 -29 67 -33 169 -6 156 -18 149 206 120z"/>
<path d="M8080 8790 c-43 -43 -132 -216 -170 -329 -11 -35 -38 -86 -58 -115
-20 -28 -54 -77 -76 -109 -21 -31 -71 -85 -110 -120 -39 -34 -73 -65 -76 -68
-13 -16 -161 -129 -169 -129 -11 0 -121 -118 -121 -130 0 -5 -24 -36 -53 -69
-29 -33 -64 -74 -76 -93 -38 -54 -166 -141 -236 -159 -16 -4 -43 -12 -60 -18
-16 -5 -57 -17 -90 -26 -33 -9 -67 -20 -76 -25 -9 -5 -33 -12 -53 -15 -20 -4
-39 -11 -42 -16 -3 -5 -22 -9 -43 -9 -20 0 -46 -7 -57 -15 -10 -8 -27 -15 -36
-15 -10 0 -32 -6 -50 -14 -18 -8 -49 -21 -70 -30 -20 -9 -44 -16 -55 -16 -23
-1 -159 -49 -195 -70 -10 -6 -26 -10 -36 -10 -18 0 -71 -25 -177 -85 -27 -15
-81 -44 -120 -63 -38 -20 -83 -45 -100 -56 -16 -12 -70 -42 -120 -67 -49 -25
-106 -55 -125 -67 -19 -11 -58 -33 -87 -48 -29 -15 -60 -34 -70 -43 -10 -9
-64 -51 -120 -94 -226 -171 -392 -362 -566 -652 -10 -17 -101 -140 -147 -200
-8 -11 -39 -44 -67 -74 -56 -58 -66 -90 -39 -126 10 -14 26 -20 55 -20 33 0
47 7 76 35 34 33 255 322 255 334 0 3 13 25 29 48 16 24 45 68 64 98 20 30 44
64 54 75 10 11 31 39 46 63 36 56 101 121 212 216 50 42 95 80 100 84 6 4 47
36 92 70 45 34 84 62 88 62 3 0 23 11 46 25 22 14 92 53 156 86 64 33 130 71
147 83 17 13 42 27 56 31 14 4 30 11 35 16 6 4 42 24 80 44 39 19 85 45 104
56 19 11 55 27 80 36 25 8 60 21 76 28 17 7 55 21 85 30 30 10 72 24 93 31 20
8 50 14 65 14 15 1 38 7 52 15 14 8 37 14 52 15 15 0 29 4 32 9 3 4 25 11 49
14 23 3 56 13 72 21 17 9 35 16 42 16 7 0 33 11 59 25 26 14 61 25 78 25 17 1
42 7 56 15 14 8 33 14 42 15 23 0 167 69 187 89 9 9 37 32 63 51 25 19 56 51
69 70 13 19 43 55 66 80 23 25 54 63 68 85 32 47 85 105 98 105 4 0 32 19 60
42 49 40 79 67 204 179 74 67 252 314 253 352 1 14 30 96 55 152 17 39 18 39
27 16 14 -38 -16 -332 -41 -394 -7 -18 -11 -110 -11 -243 0 -209 9 -287 41
-359 10 -22 25 -91 39 -171 4 -28 12 -59 18 -70 35 -68 47 -142 47 -285 0 -93
-4 -155 -12 -170 -6 -13 -22 -55 -34 -94 -12 -38 -33 -84 -46 -102 -12 -17
-23 -37 -23 -43 0 -6 -12 -32 -26 -58 -15 -26 -42 -76 -61 -111 -20 -35 -58
-92 -87 -127 -28 -34 -73 -92 -101 -128 -27 -35 -74 -86 -104 -113 -63 -56
-123 -115 -167 -163 -88 -97 -188 -157 -305 -184 -57 -13 -126 -36 -194 -65
-11 -5 -40 -16 -65 -26 -25 -9 -80 -35 -123 -56 -43 -21 -86 -39 -95 -39 -9 0
-30 -7 -46 -15 -15 -8 -34 -15 -42 -15 -7 0 -28 -6 -46 -14 -18 -8 -53 -22
-78 -32 -25 -9 -81 -34 -125 -54 -44 -21 -103 -48 -132 -60 -56 -25 -109 -74
-139 -130 -11 -19 -31 -51 -45 -70 -60 -82 -64 -108 -63 -425 1 -240 4 -298
18 -335 8 -25 16 -52 16 -61 0 -9 7 -30 15 -45 8 -16 15 -37 15 -46 0 -20 56
-127 74 -143 43 -37 42 -39 -63 -141 -56 -53 -101 -103 -101 -109 0 -7 -6 -17
-13 -24 -8 -6 -26 -37 -41 -68 -15 -32 -34 -70 -42 -85 -8 -14 -14 -34 -14
-45 0 -19 -24 -97 -47 -150 -7 -17 -13 -36 -13 -42 0 -6 -4 -19 -9 -29 -5 -9
-17 -42 -26 -72 -14 -48 -24 -76 -64 -175 -43 -105 -61 -250 -70 -550 -5 -143
-9 -264 -11 -270 -7 -27 2 -58 25 -80 28 -28 51 -31 80 -9 25 18 30 72 45 419
6 138 15 260 20 273 6 13 10 33 10 46 0 13 9 50 19 82 18 57 27 81 57 151 8
17 14 37 14 44 0 14 56 173 71 201 5 10 9 25 9 33 0 8 14 44 30 78 17 35 30
69 30 74 0 6 7 16 15 23 8 7 15 21 15 31 0 27 40 87 85 129 75 70 105 102 105
111 0 5 10 13 22 18 17 6 44 -3 115 -40 52 -26 106 -50 122 -54 50 -11 54 -23
53 -178 -2 -231 16 -380 57 -463 47 -96 217 -214 340 -236 94 -17 436 -22 529
-7 97 15 116 7 88 -36 -10 -15 -25 -34 -34 -43 -24 -24 -139 -112 -146 -112
-4 0 -23 -10 -44 -23 -45 -28 -166 -78 -247 -102 -33 -10 -69 -24 -80 -30 -11
-7 -54 -15 -95 -18 -69 -6 -184 -26 -220 -39 -8 -3 -49 -16 -90 -28 -41 -13
-79 -26 -85 -30 -5 -4 -21 -10 -35 -13 -52 -11 -117 -38 -230 -98 -96 -50
-270 -255 -270 -317 0 -15 4 -32 8 -39 13 -20 60 -33 85 -24 24 9 77 71 77 90
0 6 30 41 68 79 68 70 155 125 247 157 28 9 59 21 70 25 11 4 52 18 90 30 39
11 79 25 90 29 48 20 127 35 210 41 50 4 104 13 120 20 17 7 44 19 62 26 17 8
42 14 56 14 14 0 47 11 74 24 26 13 73 35 103 49 60 29 132 69 140 78 3 3 32
22 65 42 75 45 124 104 148 176 16 50 33 91 58 143 5 10 9 22 9 27 0 38 133
267 162 279 4 2 8 21 8 41 0 46 -24 71 -68 71 -24 0 -39 -10 -74 -50 -38 -43
-109 -171 -146 -261 -10 -25 -15 -26 -119 -35 -150 -12 -486 -10 -559 3 -66
12 -87 21 -149 68 -110 80 -122 117 -131 394 l-7 204 49 -8 c27 -4 57 -11 67
-17 23 -12 390 -4 472 10 71 13 139 36 174 61 14 10 47 28 72 40 105 52 238
217 265 331 16 65 18 223 4 250 -13 24 15 34 70 25 47 -8 73 5 89 43 10 24 10
36 -3 67 l-16 37 -197 -6 c-314 -9 -587 -38 -617 -67 -6 -5 -16 -9 -24 -9 -31
0 -294 -129 -332 -163 -26 -23 -106 -126 -128 -166 -18 -31 -52 -139 -52 -163
0 -28 -18 -58 -35 -58 -28 0 -221 100 -264 136 -56 49 -81 90 -116 199 l-30
90 0 311 0 311 45 58 c52 67 128 127 185 145 22 7 56 23 75 34 19 12 55 30 80
40 25 10 53 22 62 27 27 14 101 39 116 39 17 0 59 18 179 76 50 24 101 44 112
44 11 0 22 4 26 9 3 5 20 13 37 17 18 3 39 10 48 14 27 13 84 32 139 46 47 11
122 44 236 102 40 20 125 84 125 94 0 4 30 40 68 79 37 39 71 78 76 88 9 15
59 72 97 110 9 9 35 43 59 76 23 33 48 65 54 70 45 40 111 146 186 302 22 45
44 84 49 87 4 3 16 31 25 63 9 32 21 66 27 75 5 10 9 23 9 30 0 7 8 27 18 43
14 26 17 57 17 216 0 120 -4 191 -11 200 -19 24 -49 127 -73 254 -4 22 -13 56
-19 75 -41 123 -42 129 -42 346 0 182 3 220 17 247 14 28 17 71 17 328 1 278
0 298 -18 318 -13 14 -31 21 -58 21 -31 0 -45 -7 -78 -40z m-362 -4412 c2
-109 1 -120 -25 -174 -54 -115 -230 -247 -366 -276 -61 -13 -415 -14 -502 -2
l-60 9 -3 39 c-2 22 1 49 7 60 5 12 17 47 27 79 9 33 23 64 29 71 7 6 24 30
38 53 14 22 39 50 54 61 29 20 215 112 228 112 4 0 21 6 38 13 69 30 147 46
242 53 55 3 120 10 145 14 25 4 68 7 95 6 l50 -1 3 -117z"/>
<path d="M6820 7145 c-14 -8 -34 -14 -46 -15 -23 0 -108 -42 -135 -67 -29 -25
-30 -63 -2 -91 21 -21 30 -24 71 -18 25 3 53 13 62 21 9 8 21 15 27 15 6 0 24
7 39 15 41 21 300 21 351 0 19 -8 42 -15 50 -15 8 0 32 -12 52 -27 20 -16 52
-37 71 -47 35 -20 90 -60 185 -136 71 -57 119 -70 249 -70 147 0 237 21 282
67 38 38 45 81 17 105 -31 26 -48 26 -104 0 -48 -24 -68 -27 -184 -30 l-130
-3 -40 34 c-80 70 -169 137 -179 137 -6 0 -27 13 -46 28 -61 50 -119 82 -148
82 -15 0 -37 7 -48 15 -27 21 -357 21 -394 0z"/>
<path d="M4297 6920 c-16 -12 -27 -31 -27 -45 0 -27 53 -85 78 -85 34 0 199
-69 225 -94 7 -6 32 -27 57 -45 25 -19 66 -55 92 -79 55 -53 100 -60 131 -20
37 44 2 103 -111 188 -19 14 -39 30 -45 35 -46 41 -199 125 -229 125 -7 0 -26
7 -42 15 -52 27 -98 29 -129 5z"/>
<path d="M6289 6788 c-80 -57 -205 -200 -253 -288 -31 -55 -34 -62 -57 -115
-12 -27 -32 -75 -46 -105 -49 -111 -53 -121 -53 -138 0 -10 -4 -22 -9 -27 -15
-15 -31 -114 -42 -255 -5 -69 -14 -135 -19 -148 -6 -13 -10 -30 -10 -38 0 -9
-6 -30 -13 -47 -20 -47 -38 -99 -44 -126 -3 -13 -26 -62 -49 -109 -49 -96 -54
-132 -22 -162 30 -27 60 -25 92 7 25 25 40 52 82 153 8 19 18 42 22 50 5 8 16
42 26 75 10 33 23 68 28 78 8 17 21 70 38 167 5 25 9 78 9 119 1 41 5 88 10
105 5 17 17 58 27 91 25 87 40 123 123 295 60 125 144 229 255 315 32 25 39
37 38 64 -2 74 -61 91 -133 39z"/>
<path d="M5029 6283 c-18 -4 -39 -44 -39 -71 0 -10 15 -47 33 -82 18 -36 38
-85 44 -110 7 -26 14 -160 16 -311 5 -266 8 -292 48 -394 4 -11 10 -30 14 -41
17 -61 92 -95 129 -58 20 19 21 86 2 122 -42 84 -54 172 -55 427 -1 162 -14
313 -31 343 -5 9 -23 47 -40 84 -17 36 -36 70 -43 76 -16 12 -58 20 -78 15z"/>
<path d="M8158 5176 c-31 -15 -58 -72 -69 -148 -11 -77 -2 -713 12 -784 5 -28
9 -166 8 -305 -1 -140 1 -317 4 -393 5 -93 2 -207 -8 -340 -14 -196 -16 -202
-45 -244 -16 -23 -30 -47 -30 -53 0 -6 -7 -32 -15 -58 -8 -25 -21 -73 -30
-106 -25 -96 -67 -228 -81 -255 -7 -14 -27 -53 -43 -88 -17 -34 -47 -87 -67
-118 -52 -78 -235 -253 -331 -317 -83 -56 -140 -100 -216 -170 -41 -37 -44
-38 -102 -33 -62 5 -247 25 -415 46 -52 6 -179 10 -281 8 -167 -3 -189 -5
-208 -22 -28 -25 -29 -86 -1 -111 15 -13 27 -16 57 -10 101 20 517 3 613 -25
19 -5 63 -10 97 -10 38 0 63 -4 63 -11 0 -10 -50 -72 -127 -158 -23 -25 -50
-61 -60 -79 -16 -31 -21 -33 -53 -28 -90 15 -139 25 -185 39 -28 8 -74 22
-104 31 -29 9 -64 16 -78 16 -13 0 -32 4 -42 10 -27 14 -174 22 -203 11 -33
-12 -54 -62 -39 -90 19 -34 52 -45 156 -52 55 -4 125 -15 155 -24 30 -9 76
-22 102 -29 25 -6 50 -14 54 -19 4 -4 29 -7 56 -7 66 0 71 -18 21 -78 -22 -26
-57 -73 -78 -106 -35 -53 -73 -93 -160 -169 -62 -55 -101 -77 -205 -115 -64
-24 -450 -24 -493 0 -61 34 -127 96 -171 162 -44 65 -46 71 -40 120 13 113 41
167 166 329 29 38 55 74 57 80 2 6 22 34 45 63 23 28 62 85 88 125 25 41 64
93 86 115 40 41 62 94 61 144 0 36 -29 101 -63 143 -50 62 -189 117 -297 117
-32 0 -86 7 -121 16 -53 14 -100 16 -308 11 -135 -4 -261 -10 -280 -16 -19 -5
-57 -14 -85 -21 -121 -28 -248 -121 -262 -192 -3 -16 -10 -31 -14 -34 -5 -3
-9 -46 -9 -95 0 -78 3 -94 25 -129 29 -46 133 -152 288 -294 159 -145 196
-199 214 -313 8 -52 -56 -159 -113 -189 -81 -43 -218 -60 -531 -69 -247 -8
-241 -8 -408 69 -38 18 -88 40 -110 48 -22 9 -73 30 -114 47 -80 34 -109 37
-162 20 -75 -25 -74 -53 4 -89 28 -13 54 -27 57 -31 3 -4 25 -17 50 -29 25
-12 53 -26 62 -31 10 -5 24 -9 33 -9 12 0 171 -70 227 -101 10 -5 40 -9 68 -9
27 0 67 -7 89 -16 29 -11 58 -14 103 -10 35 3 164 10 288 14 244 10 313 22
402 71 67 37 100 70 145 144 l38 62 -1 111 c-1 105 -3 114 -34 173 -34 63
-124 159 -364 387 l-116 110 0 67 c0 67 1 68 45 112 24 25 51 45 59 45 7 0 27
7 42 15 16 8 38 15 50 15 11 0 25 5 30 10 7 7 113 9 320 6 318 -4 453 -14 491
-34 12 -7 30 -12 40 -12 21 0 83 -59 83 -79 0 -7 -13 -29 -30 -48 -16 -18 -30
-39 -30 -44 0 -6 -13 -28 -30 -49 -16 -21 -30 -43 -30 -49 0 -6 -3 -11 -8 -11
-4 0 -16 -16 -27 -36 -10 -19 -29 -48 -42 -62 -13 -15 -34 -43 -46 -62 -12
-19 -25 -39 -29 -45 -57 -72 -174 -238 -189 -267 -29 -56 -42 -115 -46 -208
-5 -93 -11 -75 74 -200 64 -93 157 -170 253 -209 57 -23 401 -27 498 -6 139
30 286 112 391 216 50 49 111 130 111 145 0 8 82 116 108 143 7 8 20 24 29 37
19 30 26 30 148 -2 55 -15 120 -31 145 -36 169 -38 266 -67 350 -105 114 -54
246 -103 274 -103 12 0 48 -14 81 -30 32 -17 83 -38 112 -46 29 -8 55 -20 58
-25 10 -16 71 -10 87 9 30 33 30 56 1 83 -33 30 -96 69 -112 69 -6 0 -35 12
-64 26 -54 27 -254 101 -297 111 -14 3 -32 11 -40 18 -8 7 -24 15 -35 18 -11
3 -45 15 -75 27 -30 11 -73 25 -95 30 -121 28 -185 42 -228 50 -26 5 -62 13
-80 19 -17 6 -48 13 -69 16 -49 8 -56 31 -20 69 16 17 44 51 62 76 19 25 60
72 91 105 l58 59 102 -2 c57 -2 110 -7 118 -12 9 -4 50 -11 91 -15 41 -4 85
-11 98 -16 13 -5 65 -9 115 -10 51 0 121 -7 157 -15 36 -8 83 -19 105 -24 22
-5 72 -12 110 -15 136 -12 407 -78 439 -107 6 -4 23 -8 38 -8 16 0 45 -7 65
-15 75 -32 143 -5 143 57 0 44 -49 72 -170 95 -18 3 -45 12 -60 20 -14 7 -36
13 -51 13 -14 0 -29 4 -35 9 -15 16 -206 56 -344 72 -47 6 -101 14 -120 19
-125 31 -189 40 -276 40 -59 0 -119 6 -148 15 -28 9 -88 15 -142 15 -54 0 -96
4 -99 11 -12 18 90 99 307 244 37 24 84 62 104 82 51 53 154 192 154 208 0 7
3 15 8 17 8 3 61 112 87 178 9 25 22 56 27 70 6 14 14 41 19 60 4 19 15 62 24
95 9 33 21 78 26 100 5 22 26 72 47 110 l37 70 5 220 c3 121 2 335 -2 475 -4
140 -6 496 -5 790 2 486 4 538 20 567 21 39 22 101 2 130 -18 25 -57 34 -87
19z"/>
<path d="M1520 3998 c-19 -31 -20 -47 -17 -223 4 -202 18 -350 36 -383 6 -11
11 -32 11 -45 0 -27 12 -69 72 -248 39 -119 50 -165 73 -304 28 -165 35 -197
43 -209 5 -6 12 -25 15 -43 4 -18 35 -92 70 -165 35 -73 71 -153 81 -178 10
-25 24 -57 32 -72 8 -14 14 -33 14 -41 0 -9 23 -54 51 -100 37 -63 83 -117
177 -210 153 -151 172 -167 216 -174 28 -4 39 -1 60 20 22 22 24 29 14 58 -6
22 -27 47 -56 69 -77 59 -250 240 -284 299 -19 31 -42 76 -52 101 -10 25 -25
59 -32 77 -8 17 -14 34 -14 39 0 6 -45 102 -119 254 -15 31 -25 61 -62 186 -5
17 -9 46 -9 65 0 19 -7 61 -15 92 -8 32 -15 69 -15 82 0 14 -6 42 -14 62 -7
21 -21 65 -31 98 -10 33 -29 94 -43 135 -14 41 -29 93 -33 115 -5 22 -15 74
-24 115 -11 49 -19 153 -23 298 -7 219 -7 224 -31 243 -36 29 -68 24 -91 -13z"/>
<path d="M4105 1880 c-11 -5 -87 -9 -170 -10 -103 -1 -163 -5 -190 -15 -27
-10 -83 -15 -175 -15 -83 0 -158 -6 -195 -15 -33 -8 -81 -14 -106 -15 -51 0
-121 -20 -192 -56 -27 -13 -53 -24 -59 -24 -5 0 -24 -6 -41 -14 -75 -32 -94
-38 -137 -46 -53 -10 -161 -49 -246 -90 -33 -17 -76 -30 -95 -30 -19 0 -79
-16 -134 -36 -55 -19 -116 -39 -135 -43 -108 -24 -128 -31 -232 -80 -37 -17
-79 -31 -93 -31 -14 0 -56 -14 -93 -31 -37 -17 -76 -35 -87 -40 -91 -36 -199
-88 -242 -115 -51 -33 -60 -47 -53 -94 6 -51 77 -56 151 -10 27 16 52 30 55
30 3 0 24 9 47 19 115 52 161 71 174 71 7 0 24 6 36 14 12 7 51 19 87 26 69
13 137 40 184 73 17 12 50 24 75 28 40 6 146 41 234 77 61 25 80 17 232 -97
81 -59 170 -120 199 -134 88 -43 87 -49 -15 -82 -49 -16 -92 -32 -95 -37 -3
-4 -13 -8 -24 -8 -16 0 -131 -46 -170 -69 -9 -5 -31 -12 -50 -16 -31 -7 -77
-30 -90 -45 -4 -5 -37 -23 -121 -67 -34 -17 -60 -46 -61 -69 -3 -41 12 -72 38
-78 32 -8 55 -1 116 36 26 16 52 27 58 23 6 -3 23 0 38 7 54 28 147 81 162 93
19 15 85 45 99 45 11 0 20 4 79 33 19 9 38 17 44 17 5 0 24 6 41 13 58 25 152
55 287 93 30 9 64 19 75 24 42 17 125 40 147 40 26 0 146 36 162 49 6 5 25 11
41 14 45 9 138 33 155 40 8 3 47 13 85 22 39 9 81 21 95 27 53 22 175 48 225
48 41 0 56 5 73 23 28 30 28 68 -1 95 -30 29 -72 36 -127 22 -25 -6 -67 -16
-95 -21 -56 -11 -135 -38 -150 -51 -5 -4 -27 -8 -48 -8 -21 0 -53 -6 -70 -13
-58 -25 -141 -48 -177 -50 l-35 -2 -5 140 -5 140 -63 5 c-37 3 -67 1 -72 -5
-5 -6 -4 -69 2 -140 5 -72 11 -143 11 -160 2 -29 0 -30 -78 -50 -44 -12 -87
-24 -95 -27 -114 -44 -164 -53 -183 -33 -9 9 -58 37 -109 64 -143 74 -191 102
-218 126 -14 12 -42 32 -63 45 -67 39 -48 51 188 115 33 9 67 20 75 24 9 5 31
12 50 16 19 4 69 25 111 46 64 32 87 39 137 39 33 0 76 7 95 15 26 11 74 15
169 15 73 0 151 5 173 11 22 6 117 15 210 19 230 12 294 21 311 45 15 20 18
63 6 81 -20 31 -92 43 -137 24z"/>
</g>
</svg>
